# Blender v2.93.4 OBJ File: ''
# www.blender.org
mtllib tri.mtl
o Cube_Cube.001
v 112.500000 -124.998871 -0.531205
v 120.000000 -125.050598 11.468682
v 120.000000 124.947083 12.546353
v 112.500000 124.998810 0.546465
v 120.000000 124.947083 12.546353
v 127.500000 124.998810 0.546465
v 120.000000 -125.050598 11.468682
v 127.500000 -124.998871 -0.531205
vt 0.375000 0.000000
vt 0.625000 0.000000
vt 0.625000 0.250000
vt 0.375000 0.250000
vt 0.625000 0.500000
vt 0.375000 0.500000
vt 0.625000 0.750000
vt 0.375000 0.750000
vt 0.625000 1.000000
vt 0.375000 1.000000
vt 0.125000 0.500000
vt 0.125000 0.750000
vt 0.875000 0.500000
vt 0.875000 0.750000
vn -0.8480 -0.0023 0.5300
vn 0.0000 1.0000 0.0043
vn 0.8480 -0.0023 0.5300
vn 0.0000 -1.0000 -0.0043
vn 0.0346 0.7022 -0.7112
vn -0.0203 0.7289 -0.6843
vn 0.0000 0.0043 -1.0000
vn 0.0000 0.0000 -0.9245
vn 0.1458 0.3521 -0.9245
usemtl None.001
s 1
f 1/1/1 2/2/1 3/3/1 4/4/1
f 4/4/2 3/3/2 5/5/2 6/6/2
f 6/6/3 5/5/3 7/7/3 8/8/3
f 8/8/4 7/7/5 2/9/6 1/10/4
f 4/11/7 6/6/7 8/8/7 1/12/7
f 5/5/8 3/13/9 2/14/6 7/7/5
o Plane
v -125.000000 -124.998840 -0.538835
v 125.000000 -124.998840 -0.538835
v 125.000000 124.998840 0.538835
v -125.000000 124.998840 0.538835
vt 0.000000 0.000000
vt 1.000000 0.000000
vt 1.000000 1.000000
vt 0.000000 1.000000
vn 0.0000 -0.0043 1.0000
usemtl None.001
s 1
f 9/15/10 10/16/10 11/17/10 12/18/10
o Cube.001_Cube.002
v -7.500000 -124.998871 -0.531205
v 0.000000 -125.050598 11.468682
v 0.000000 124.947083 12.546353
v -7.500000 124.998810 0.546465
v 0.000000 124.947083 12.546353
v 7.500000 124.998810 0.546465
v 0.000000 -125.050598 11.468682
v 7.500000 -124.998871 -0.531205
vt 0.375000 0.000000
vt 0.625000 0.000000
vt 0.625000 0.250000
vt 0.375000 0.250000
vt 0.625000 0.500000
vt 0.375000 0.500000
vt 0.625000 0.750000
vt 0.375000 0.750000
vt 0.625000 1.000000
vt 0.375000 1.000000
vt 0.125000 0.500000
vt 0.125000 0.750000
vt 0.875000 0.500000
vt 0.875000 0.750000
vn -0.8480 -0.0023 0.5300
vn 0.0000 1.0000 0.0043
vn 0.8480 -0.0023 0.5300
vn 0.0000 -1.0000 -0.0043
vn 0.0346 0.7022 -0.7112
vn -0.0203 0.7289 -0.6843
vn 0.0000 0.0043 -1.0000
vn 0.0000 0.0000 -0.9245
vn 0.1458 0.3521 -0.9245
usemtl None.001
s 1
f 13/19/11 14/20/11 15/21/11 16/22/11
f 16/22/12 15/21/12 17/23/12 18/24/12
f 18/24/13 17/23/13 19/25/13 20/26/13
f 20/26/14 19/25/15 14/27/16 13/28/14
f 16/29/17 18/24/17 20/26/17 13/30/17
f 17/23/18 15/31/19 14/32/16 19/25/15
o Cube.002_Cube.003
v 7.500000 -124.998871 -0.531205
v 15.000000 -125.050598 11.468682
v 15.000000 124.947083 12.546353
v 7.500000 124.998810 0.546465
v 15.000000 124.947083 12.546353
v 22.500000 124.998810 0.546465
v 15.000000 -125.050598 11.468682
v 22.500000 -124.998871 -0.531205
vt 0.375000 0.000000
vt 0.625000 0.000000
vt 0.625000 0.250000
vt 0.375000 0.250000
vt 0.625000 0.500000
vt 0.375000 0.500000
vt 0.625000 0.750000
vt 0.375000 0.750000
vt 0.625000 1.000000
vt 0.375000 1.000000
vt 0.125000 0.500000
vt 0.125000 0.750000
vt 0.875000 0.500000
vt 0.875000 0.750000
vn -0.8480 -0.0023 0.5300
vn 0.0000 1.0000 0.0043
vn 0.8480 -0.0023 0.5300
vn 0.0000 -1.0000 -0.0043
vn 0.0346 0.7022 -0.7112
vn -0.0203 0.7289 -0.6843
vn 0.0000 0.0043 -1.0000
vn 0.0000 0.0000 -0.9245
vn 0.1458 0.3521 -0.9245
usemtl None.001
s 1
f 21/33/20 22/34/20 23/35/20 24/36/20
f 24/36/21 23/35/21 25/37/21 26/38/21
f 26/38/22 25/37/22 27/39/22 28/40/22
f 28/40/23 27/39/24 22/41/25 21/42/23
f 24/43/26 26/38/26 28/40/26 21/44/26
f 25/37/27 23/45/28 22/46/25 27/39/24
o Cube.003_Cube.004
v 22.500000 -124.998871 -0.531205
v 30.000000 -125.050598 11.468682
v 30.000000 124.947083 12.546353
v 22.500000 124.998810 0.546465
v 30.000000 124.947083 12.546353
v 37.500000 124.998810 0.546465
v 30.000000 -125.050598 11.468682
v 37.500000 -124.998871 -0.531205
vt 0.375000 0.000000
vt 0.625000 0.000000
vt 0.625000 0.250000
vt 0.375000 0.250000
vt 0.625000 0.500000
vt 0.375000 0.500000
vt 0.625000 0.750000
vt 0.375000 0.750000
vt 0.625000 1.000000
vt 0.375000 1.000000
vt 0.125000 0.500000
vt 0.125000 0.750000
vt 0.875000 0.500000
vt 0.875000 0.750000
vn -0.8480 -0.0023 0.5300
vn 0.0000 1.0000 0.0043
vn 0.8480 -0.0023 0.5300
vn 0.0000 -1.0000 -0.0043
vn 0.0346 0.7022 -0.7112
vn -0.0203 0.7289 -0.6843
vn 0.0000 0.0043 -1.0000
vn 0.0000 0.0000 -0.9245
vn 0.1458 0.3521 -0.9245
usemtl None.001
s 1
f 29/47/29 30/48/29 31/49/29 32/50/29
f 32/50/30 31/49/30 33/51/30 34/52/30
f 34/52/31 33/51/31 35/53/31 36/54/31
f 36/54/32 35/53/33 30/55/34 29/56/32
f 32/57/35 34/52/35 36/54/35 29/58/35
f 33/51/36 31/59/37 30/60/34 35/53/33
o Cube.004_Cube.005
v 37.500000 -124.998871 -0.531205
v 45.000000 -125.050598 11.468682
v 45.000000 124.947083 12.546353
v 37.500000 124.998810 0.546465
v 45.000000 124.947083 12.546353
v 52.500000 124.998810 0.546465
v 45.000000 -125.050598 11.468682
v 52.500000 -124.998871 -0.531205
vt 0.375000 0.000000
vt 0.625000 0.000000
vt 0.625000 0.250000
vt 0.375000 0.250000
vt 0.625000 0.500000
vt 0.375000 0.500000
vt 0.625000 0.750000
vt 0.375000 0.750000
vt 0.625000 1.000000
vt 0.375000 1.000000
vt 0.125000 0.500000
vt 0.125000 0.750000
vt 0.875000 0.500000
vt 0.875000 0.750000
vn -0.8480 -0.0023 0.5300
vn 0.0000 1.0000 0.0043
vn 0.8480 -0.0023 0.5300
vn 0.0000 -1.0000 -0.0043
vn 0.0346 0.7022 -0.7112
vn -0.0203 0.7289 -0.6843
vn 0.0000 0.0043 -1.0000
vn 0.0000 0.0000 -0.9245
vn 0.1458 0.3521 -0.9245
usemtl None.001
s 1
f 37/61/38 38/62/38 39/63/38 40/64/38
f 40/64/39 39/63/39 41/65/39 42/66/39
f 42/66/40 41/65/40 43/67/40 44/68/40
f 44/68/41 43/67/42 38/69/43 37/70/41
f 40/71/44 42/66/44 44/68/44 37/72/44
f 41/65/45 39/73/46 38/74/43 43/67/42
o Cube.005_Cube.006
v 52.500000 -124.998871 -0.531205
v 60.000000 -125.050598 11.468682
v 60.000000 124.947083 12.546353
v 52.500000 124.998810 0.546465
v 60.000000 124.947083 12.546353
v 67.500000 124.998810 0.546465
v 60.000000 -125.050598 11.468682
v 67.500000 -124.998871 -0.531205
vt 0.375000 0.000000
vt 0.625000 0.000000
vt 0.625000 0.250000
vt 0.375000 0.250000
vt 0.625000 0.500000
vt 0.375000 0.500000
vt 0.625000 0.750000
vt 0.375000 0.750000
vt 0.625000 1.000000
vt 0.375000 1.000000
vt 0.125000 0.500000
vt 0.125000 0.750000
vt 0.875000 0.500000
vt 0.875000 0.750000
vn -0.8480 -0.0023 0.5300
vn 0.0000 1.0000 0.0043
vn 0.8480 -0.0023 0.5300
vn 0.0000 -1.0000 -0.0043
vn 0.0346 0.7022 -0.7112
vn -0.0203 0.7289 -0.6843
vn 0.0000 0.0043 -1.0000
vn 0.0000 0.0000 -0.9245
vn 0.1458 0.3521 -0.9245
usemtl None.001
s 1
f 45/75/47 46/76/47 47/77/47 48/78/47
f 48/78/48 47/77/48 49/79/48 50/80/48
f 50/80/49 49/79/49 51/81/49 52/82/49
f 52/82/50 51/81/51 46/83/52 45/84/50
f 48/85/53 50/80/53 52/82/53 45/86/53
f 49/79/54 47/87/55 46/88/52 51/81/51
o Cube.006_Cube.007
v 67.500000 -124.998871 -0.531205
v 75.000000 -125.050598 11.468682
v 75.000000 124.947083 12.546353
v 67.500000 124.998810 0.546465
v 75.000000 124.947083 12.546353
v 82.500000 124.998810 0.546465
v 75.000000 -125.050598 11.468682
v 82.500000 -124.998871 -0.531205
vt 0.375000 0.000000
vt 0.625000 0.000000
vt 0.625000 0.250000
vt 0.375000 0.250000
vt 0.625000 0.500000
vt 0.375000 0.500000
vt 0.625000 0.750000
vt 0.375000 0.750000
vt 0.625000 1.000000
vt 0.375000 1.000000
vt 0.125000 0.500000
vt 0.125000 0.750000
vt 0.875000 0.500000
vt 0.875000 0.750000
vn -0.8480 -0.0023 0.5300
vn 0.0000 1.0000 0.0043
vn 0.8480 -0.0023 0.5300
vn 0.0000 -1.0000 -0.0043
vn 0.0346 0.7022 -0.7112
vn -0.0203 0.7289 -0.6843
vn 0.0000 0.0043 -1.0000
vn 0.0000 0.0000 -0.9245
vn 0.1458 0.3521 -0.9245
usemtl None.001
s 1
f 53/89/56 54/90/56 55/91/56 56/92/56
f 56/92/57 55/91/57 57/93/57 58/94/57
f 58/94/58 57/93/58 59/95/58 60/96/58
f 60/96/59 59/95/60 54/97/61 53/98/59
f 56/99/62 58/94/62 60/96/62 53/100/62
f 57/93/63 55/101/64 54/102/61 59/95/60
o Cube.007_Cube.008
v 82.500000 -124.998871 -0.531205
v 90.000000 -125.050598 11.468682
v 90.000000 124.947083 12.546353
v 82.500000 124.998810 0.546465
v 90.000000 124.947083 12.546353
v 97.500000 124.998810 0.546465
v 90.000000 -125.050598 11.468682
v 97.500000 -124.998871 -0.531205
vt 0.375000 0.000000
vt 0.625000 0.000000
vt 0.625000 0.250000
vt 0.375000 0.250000
vt 0.625000 0.500000
vt 0.375000 0.500000
vt 0.625000 0.750000
vt 0.375000 0.750000
vt 0.625000 1.000000
vt 0.375000 1.000000
vt 0.125000 0.500000
vt 0.125000 0.750000
vt 0.875000 0.500000
vt 0.875000 0.750000
vn -0.8480 -0.0023 0.5300
vn 0.0000 1.0000 0.0043
vn 0.8480 -0.0023 0.5300
vn 0.0000 -1.0000 -0.0043
vn 0.0346 0.7022 -0.7112
vn -0.0203 0.7289 -0.6843
vn 0.0000 0.0043 -1.0000
vn 0.0000 0.0000 -0.9245
vn 0.1458 0.3521 -0.9245
usemtl None.001
s 1
f 61/103/65 62/104/65 63/105/65 64/106/65
f 64/106/66 63/105/66 65/107/66 66/108/66
f 66/108/67 65/107/67 67/109/67 68/110/67
f 68/110/68 67/109/69 62/111/70 61/112/68
f 64/113/71 66/108/71 68/110/71 61/114/71
f 65/107/72 63/115/73 62/116/70 67/109/69
o Cube.008_Cube.009
v 97.500000 -124.998871 -0.531205
v 105.000000 -125.050598 11.468682
v 105.000000 124.947083 12.546353
v 97.500000 124.998810 0.546465
v 105.000000 124.947083 12.546353
v 112.500000 124.998810 0.546465
v 105.000000 -125.050598 11.468682
v 112.500000 -124.998871 -0.531205
vt 0.375000 0.000000
vt 0.625000 0.000000
vt 0.625000 0.250000
vt 0.375000 0.250000
vt 0.625000 0.500000
vt 0.375000 0.500000
vt 0.625000 0.750000
vt 0.375000 0.750000
vt 0.625000 1.000000
vt 0.375000 1.000000
vt 0.125000 0.500000
vt 0.125000 0.750000
vt 0.875000 0.500000
vt 0.875000 0.750000
vn -0.8480 -0.0023 0.5300
vn 0.0000 1.0000 0.0043
vn 0.8480 -0.0023 0.5300
vn 0.0000 -1.0000 -0.0043
vn 0.0346 0.7022 -0.7112
vn -0.0203 0.7289 -0.6843
vn 0.0000 0.0043 -1.0000
vn 0.0000 0.0000 -0.9245
vn 0.1458 0.3521 -0.9245
usemtl None.001
s 1
f 69/117/74 70/118/74 71/119/74 72/120/74
f 72/120/75 71/119/75 73/121/75 74/122/75
f 74/122/76 73/121/76 75/123/76 76/124/76
f 76/124/77 75/123/78 70/125/79 69/126/77
f 72/127/80 74/122/80 76/124/80 69/128/80
f 73/121/81 71/129/82 70/130/79 75/123/78
o Cube.017_Cube.018
v -22.481392 -124.998871 -0.531205
v -14.981392 -125.050598 11.468682
v -14.981392 124.947083 12.546353
v -22.481392 124.998810 0.546465
v -14.981392 124.947083 12.546353
v -7.481392 124.998810 0.546465
v -14.981392 -125.050598 11.468682
v -7.481392 -124.998871 -0.531205
vt 0.375000 0.000000
vt 0.625000 0.000000
vt 0.625000 0.250000
vt 0.375000 0.250000
vt 0.625000 0.500000
vt 0.375000 0.500000
vt 0.625000 0.750000
vt 0.375000 0.750000
vt 0.625000 1.000000
vt 0.375000 1.000000
vt 0.125000 0.500000
vt 0.125000 0.750000
vt 0.875000 0.500000
vt 0.875000 0.750000
vn -0.8480 -0.0023 0.5300
vn 0.0000 1.0000 0.0043
vn 0.8480 -0.0023 0.5300
vn 0.0000 -1.0000 -0.0043
vn 0.0346 0.7022 -0.7112
vn -0.0203 0.7289 -0.6843
vn 0.0000 0.0043 -1.0000
vn 0.0000 0.0000 -0.9245
vn 0.1458 0.3521 -0.9245
usemtl None.001
s 1
f 77/131/83 78/132/83 79/133/83 80/134/83
f 80/134/84 79/133/84 81/135/84 82/136/84
f 82/136/85 81/135/85 83/137/85 84/138/85
f 84/138/86 83/137/87 78/139/88 77/140/86
f 80/141/89 82/136/89 84/138/89 77/142/89
f 81/135/90 79/143/91 78/144/88 83/137/87
o Cube.016_Cube.017
v -142.481384 -124.998871 -0.531205
v -134.981384 -125.050598 11.468682
v -134.981384 124.947083 12.546353
v -142.481384 124.998810 0.546465
v -134.981384 124.947083 12.546353
v -127.481384 124.998810 0.546465
v -134.981384 -125.050598 11.468682
v -127.481384 -124.998871 -0.531205
vt 0.375000 0.000000
vt 0.625000 0.000000
vt 0.625000 0.250000
vt 0.375000 0.250000
vt 0.625000 0.500000
vt 0.375000 0.500000
vt 0.625000 0.750000
vt 0.375000 0.750000
vt 0.625000 1.000000
vt 0.375000 1.000000
vt 0.125000 0.500000
vt 0.125000 0.750000
vt 0.875000 0.500000
vt 0.875000 0.750000
vn -0.8480 -0.0023 0.5300
vn 0.0000 1.0000 0.0043
vn 0.8480 -0.0023 0.5300
vn 0.0000 -1.0000 -0.0043
vn 0.0346 0.7022 -0.7112
vn -0.0203 0.7289 -0.6843
vn 0.0000 0.0043 -1.0000
vn 0.0000 0.0000 -0.9245
vn 0.1458 0.3521 -0.9245
usemtl None.001
s 1
f 85/145/92 86/146/92 87/147/92 88/148/92
f 88/148/93 87/147/93 89/149/93 90/150/93
f 90/150/94 89/149/94 91/151/94 92/152/94
f 92/152/95 91/151/96 86/153/97 85/154/95
f 88/155/98 90/150/98 92/152/98 85/156/98
f 89/149/99 87/157/100 86/158/97 91/151/96
o Cube.015_Cube.016
v -127.481392 -124.998871 -0.531205
v -119.981392 -125.050598 11.468682
v -119.981392 124.947083 12.546353
v -127.481392 124.998810 0.546465
v -119.981392 124.947083 12.546353
v -112.481392 124.998810 0.546465
v -119.981392 -125.050598 11.468682
v -112.481392 -124.998871 -0.531205
vt 0.375000 0.000000
vt 0.625000 0.000000
vt 0.625000 0.250000
vt 0.375000 0.250000
vt 0.625000 0.500000
vt 0.375000 0.500000
vt 0.625000 0.750000
vt 0.375000 0.750000
vt 0.625000 1.000000
vt 0.375000 1.000000
vt 0.125000 0.500000
vt 0.125000 0.750000
vt 0.875000 0.500000
vt 0.875000 0.750000
vn -0.8480 -0.0023 0.5300
vn 0.0000 1.0000 0.0043
vn 0.8480 -0.0023 0.5300
vn 0.0000 -1.0000 -0.0043
vn 0.0346 0.7022 -0.7112
vn -0.0203 0.7289 -0.6843
vn 0.0000 0.0043 -1.0000
vn 0.0000 0.0000 -0.9245
vn 0.1458 0.3521 -0.9245
usemtl None.001
s 1
f 93/159/101 94/160/101 95/161/101 96/162/101
f 96/162/102 95/161/102 97/163/102 98/164/102
f 98/164/103 97/163/103 99/165/103 100/166/103
f 100/166/104 99/165/105 94/167/106 93/168/104
f 96/169/107 98/164/107 100/166/107 93/170/107
f 97/163/108 95/171/109 94/172/106 99/165/105
o Cube.014_Cube.015
v -112.481392 -124.998871 -0.531205
v -104.981392 -125.050598 11.468682
v -104.981392 124.947083 12.546353
v -112.481392 124.998810 0.546465
v -104.981392 124.947083 12.546353
v -97.481392 124.998810 0.546465
v -104.981392 -125.050598 11.468682
v -97.481392 -124.998871 -0.531205
vt 0.375000 0.000000
vt 0.625000 0.000000
vt 0.625000 0.250000
vt 0.375000 0.250000
vt 0.625000 0.500000
vt 0.375000 0.500000
vt 0.625000 0.750000
vt 0.375000 0.750000
vt 0.625000 1.000000
vt 0.375000 1.000000
vt 0.125000 0.500000
vt 0.125000 0.750000
vt 0.875000 0.500000
vt 0.875000 0.750000
vn -0.8480 -0.0023 0.5300
vn 0.0000 1.0000 0.0043
vn 0.8480 -0.0023 0.5300
vn 0.0000 -1.0000 -0.0043
vn 0.0346 0.7022 -0.7112
vn -0.0203 0.7289 -0.6843
vn 0.0000 0.0043 -1.0000
vn 0.0000 0.0000 -0.9245
vn 0.1458 0.3521 -0.9245
usemtl None.001
s 1
f 101/173/110 102/174/110 103/175/110 104/176/110
f 104/176/111 103/175/111 105/177/111 106/178/111
f 106/178/112 105/177/112 107/179/112 108/180/112
f 108/180/113 107/179/114 102/181/115 101/182/113
f 104/183/116 106/178/116 108/180/116 101/184/116
f 105/177/117 103/185/118 102/186/115 107/179/114
o Cube.013_Cube.014
v -97.481392 -124.998871 -0.531205
v -89.981392 -125.050598 11.468682
v -89.981392 124.947083 12.546353
v -97.481392 124.998810 0.546465
v -89.981392 124.947083 12.546353
v -82.481392 124.998810 0.546465
v -89.981392 -125.050598 11.468682
v -82.481392 -124.998871 -0.531205
vt 0.375000 0.000000
vt 0.625000 0.000000
vt 0.625000 0.250000
vt 0.375000 0.250000
vt 0.625000 0.500000
vt 0.375000 0.500000
vt 0.625000 0.750000
vt 0.375000 0.750000
vt 0.625000 1.000000
vt 0.375000 1.000000
vt 0.125000 0.500000
vt 0.125000 0.750000
vt 0.875000 0.500000
vt 0.875000 0.750000
vn -0.8480 -0.0023 0.5300
vn 0.0000 1.0000 0.0043
vn 0.8480 -0.0023 0.5300
vn 0.0000 -1.0000 -0.0043
vn 0.0346 0.7022 -0.7112
vn -0.0203 0.7289 -0.6843
vn 0.0000 0.0043 -1.0000
vn 0.0000 0.0000 -0.9245
vn 0.1458 0.3521 -0.9245
usemtl None.001
s 1
f 109/187/119 110/188/119 111/189/119 112/190/119
f 112/190/120 111/189/120 113/191/120 114/192/120
f 114/192/121 113/191/121 115/193/121 116/194/121
f 116/194/122 115/193/123 110/195/124 109/196/122
f 112/197/125 114/192/125 116/194/125 109/198/125
f 113/191/126 111/199/127 110/200/124 115/193/123
o Cube.012_Cube.013
v -82.481392 -124.998871 -0.531205
v -74.981392 -125.050598 11.468682
v -74.981392 124.947083 12.546353
v -82.481392 124.998810 0.546465
v -74.981392 124.947083 12.546353
v -67.481392 124.998810 0.546465
v -74.981392 -125.050598 11.468682
v -67.481392 -124.998871 -0.531205
vt 0.375000 0.000000
vt 0.625000 0.000000
vt 0.625000 0.250000
vt 0.375000 0.250000
vt 0.625000 0.500000
vt 0.375000 0.500000
vt 0.625000 0.750000
vt 0.375000 0.750000
vt 0.625000 1.000000
vt 0.375000 1.000000
vt 0.125000 0.500000
vt 0.125000 0.750000
vt 0.875000 0.500000
vt 0.875000 0.750000
vn -0.8480 -0.0023 0.5300
vn 0.0000 1.0000 0.0043
vn 0.8480 -0.0023 0.5300
vn 0.0000 -1.0000 -0.0043
vn 0.0346 0.7022 -0.7112
vn -0.0203 0.7289 -0.6843
vn 0.0000 0.0043 -1.0000
vn 0.0000 0.0000 -0.9245
vn 0.1458 0.3521 -0.9245
usemtl None.001
s 1
f 117/201/128 118/202/128 119/203/128 120/204/128
f 120/204/129 119/203/129 121/205/129 122/206/129
f 122/206/130 121/205/130 123/207/130 124/208/130
f 124/208/131 123/207/132 118/209/133 117/210/131
f 120/211/134 122/206/134 124/208/134 117/212/134
f 121/205/135 119/213/136 118/214/133 123/207/132
o Cube.011_Cube.012
v -67.481392 -124.998871 -0.531205
v -59.981392 -125.050598 11.468682
v -59.981392 124.947083 12.546353
v -67.481392 124.998810 0.546465
v -59.981392 124.947083 12.546353
v -52.481392 124.998810 0.546465
v -59.981392 -125.050598 11.468682
v -52.481392 -124.998871 -0.531205
vt 0.375000 0.000000
vt 0.625000 0.000000
vt 0.625000 0.250000
vt 0.375000 0.250000
vt 0.625000 0.500000
vt 0.375000 0.500000
vt 0.625000 0.750000
vt 0.375000 0.750000
vt 0.625000 1.000000
vt 0.375000 1.000000
vt 0.125000 0.500000
vt 0.125000 0.750000
vt 0.875000 0.500000
vt 0.875000 0.750000
vn -0.8480 -0.0023 0.5300
vn 0.0000 1.0000 0.0043
vn 0.8480 -0.0023 0.5300
vn 0.0000 -1.0000 -0.0043
vn 0.0346 0.7022 -0.7112
vn -0.0203 0.7289 -0.6843
vn 0.0000 0.0043 -1.0000
vn 0.0000 0.0000 -0.9245
vn 0.1458 0.3521 -0.9245
usemtl None.001
s 1
f 125/215/137 126/216/137 127/217/137 128/218/137
f 128/218/138 127/217/138 129/219/138 130/220/138
f 130/220/139 129/219/139 131/221/139 132/222/139
f 132/222/140 131/221/141 126/223/142 125/224/140
f 128/225/143 130/220/143 132/222/143 125/226/143
f 129/219/144 127/227/145 126/228/142 131/221/141
o Cube.010_Cube.011
v -52.481392 -124.998871 -0.531205
v -44.981392 -125.050598 11.468682
v -44.981392 124.947083 12.546353
v -52.481392 124.998810 0.546465
v -44.981392 124.947083 12.546353
v -37.481392 124.998810 0.546465
v -44.981392 -125.050598 11.468682
v -37.481392 -124.998871 -0.531205
vt 0.375000 0.000000
vt 0.625000 0.000000
vt 0.625000 0.250000
vt 0.375000 0.250000
vt 0.625000 0.500000
vt 0.375000 0.500000
vt 0.625000 0.750000
vt 0.375000 0.750000
vt 0.625000 1.000000
vt 0.375000 1.000000
vt 0.125000 0.500000
vt 0.125000 0.750000
vt 0.875000 0.500000
vt 0.875000 0.750000
vn -0.8480 -0.0023 0.5300
vn 0.0000 1.0000 0.0043
vn 0.8480 -0.0023 0.5300
vn 0.0000 -1.0000 -0.0043
vn 0.0346 0.7022 -0.7112
vn -0.0203 0.7289 -0.6843
vn 0.0000 0.0043 -1.0000
vn 0.0000 0.0000 -0.9245
vn 0.1458 0.3521 -0.9245
usemtl None.001
s 1
f 133/229/146 134/230/146 135/231/146 136/232/146
f 136/232/147 135/231/147 137/233/147 138/234/147
f 138/234/148 137/233/148 139/235/148 140/236/148
f 140/236/149 139/235/150 134/237/151 133/238/149
f 136/239/152 138/234/152 140/236/152 133/240/152
f 137/233/153 135/241/154 134/242/151 139/235/150
o Cube.009_Cube.010
v -37.481392 -124.998871 -0.531205
v -29.981392 -125.050598 11.468682
v -29.981392 124.947083 12.546353
v -37.481392 124.998810 0.546465
v -29.981392 124.947083 12.546353
v -22.481392 124.998810 0.546465
v -29.981392 -125.050598 11.468682
v -22.481392 -124.998871 -0.531205
vt 0.375000 0.000000
vt 0.625000 0.000000
vt 0.625000 0.250000
vt 0.375000 0.250000
vt 0.625000 0.500000
vt 0.375000 0.500000
vt 0.625000 0.750000
vt 0.375000 0.750000
vt 0.625000 1.000000
vt 0.375000 1.000000
vt 0.125000 0.500000
vt 0.125000 0.750000
vt 0.875000 0.500000
vt 0.875000 0.750000
vn -0.8480 -0.0023 0.5300
vn 0.0000 1.0000 0.0043
vn 0.8480 -0.0023 0.5300
vn 0.0000 -1.0000 -0.0043
vn 0.0346 0.7022 -0.7112
vn -0.0203 0.7289 -0.6843
vn 0.0000 0.0043 -1.0000
vn 0.0000 0.0000 -0.9245
vn 0.1458 0.3521 -0.9245
usemtl None.001
s 1
f 141/243/155 142/244/155 143/245/155 144/246/155
f 144/246/156 143/245/156 145/247/156 146/248/156
f 146/248/157 145/247/157 147/249/157 148/250/157
f 148/250/158 147/249/159 142/251/160 141/252/158
f 144/253/161 146/248/161 148/250/161 141/254/161
f 145/247/162 143/255/163 142/256/160 147/249/159
