# Blender v2.93.4 OBJ File: ''
# www.blender.org
mtllib tri2.mtl
o Plane.001
v -125.000000 -124.999306 0.416029
v 125.000000 -124.999306 0.416029
v 125.000000 124.999306 -0.416029
v -125.000000 124.999306 -0.416029
vt 0.000000 0.000000
vt 1.000000 0.000000
vt 1.000000 1.000000
vt 0.000000 1.000000
vn 0.0000 0.0033 1.0000
usemtl None.002
s 1
f 1/1/1 2/2/1 3/3/1 4/4/1
o Cube.002_Cube.001
v 117.500000 -124.999283 0.423659
v 125.000000 -124.959343 12.423592
v 125.000000 125.039268 11.591534
v 117.500000 124.999329 -0.408399
v 125.000000 125.039268 11.591534
v 132.500000 124.999329 -0.408399
v 125.000000 -124.959343 12.423592
v 132.500000 -124.999283 0.423659
vt 0.375000 0.000000
vt 0.625000 0.000000
vt 0.625000 0.250000
vt 0.375000 0.250000
vt 0.625000 0.500000
vt 0.375000 0.500000
vt 0.625000 0.750000
vt 0.375000 0.750000
vt 0.625000 1.000000
vt 0.375000 1.000000
vt 0.125000 0.500000
vt 0.125000 0.750000
vt 0.875000 0.500000
vt 0.875000 0.750000
vn -0.8480 0.0018 0.5300
vn 0.0000 1.0000 -0.0033
vn 0.8480 0.0018 0.5300
vn 0.0000 -1.0000 0.0033
vn 0.0344 0.6994 -0.7139
vn -0.0202 0.7261 -0.6873
vn 0.0000 -0.0033 -1.0000
vn 0.0000 0.0000 -0.9234
vn 0.1469 0.3546 -0.9234
usemtl None.002
s 1
f 5/5/2 6/6/2 7/7/2 8/8/2
f 8/8/3 7/7/3 9/9/3 10/10/3
f 10/10/4 9/9/4 11/11/4 12/12/4
f 12/12/5 11/11/6 6/13/7 5/14/5
f 8/15/8 10/10/8 12/12/8 5/16/8
f 9/9/9 7/17/10 6/18/7 11/11/6
o Cube.001_Cube.004
v -132.500000 -124.999283 0.423659
v -125.000000 -124.959343 12.423592
v -125.000000 125.039268 11.591534
v -132.500000 124.999329 -0.408399
v -125.000000 125.039268 11.591534
v -117.500000 124.999329 -0.408399
v -125.000000 -124.959343 12.423592
v -117.500000 -124.999283 0.423659
vt 0.375000 0.000000
vt 0.625000 0.000000
vt 0.625000 0.250000
vt 0.375000 0.250000
vt 0.625000 0.500000
vt 0.375000 0.500000
vt 0.625000 0.750000
vt 0.375000 0.750000
vt 0.625000 1.000000
vt 0.375000 1.000000
vt 0.125000 0.500000
vt 0.125000 0.750000
vt 0.875000 0.500000
vt 0.875000 0.750000
vn -0.8480 0.0018 0.5300
vn 0.0000 1.0000 -0.0033
vn 0.8480 0.0018 0.5300
vn 0.0000 -1.0000 0.0033
vn 0.0344 0.6994 -0.7139
vn -0.0202 0.7261 -0.6873
vn 0.0000 -0.0033 -1.0000
vn 0.0000 0.0000 -0.9234
vn 0.1469 0.3546 -0.9234
usemtl None.002
s 1
f 13/19/11 14/20/11 15/21/11 16/22/11
f 16/22/12 15/21/12 17/23/12 18/24/12
f 18/24/13 17/23/13 19/25/13 20/26/13
f 20/26/14 19/25/15 14/27/16 13/28/14
f 16/29/17 18/24/17 20/26/17 13/30/17
f 17/23/18 15/31/19 14/32/16 19/25/15
o Cube.003_Cube.005
v -7.500000 -124.999283 0.423659
v 0.000000 -124.959343 12.423592
v 0.000000 125.039268 11.591534
v -7.500000 124.999329 -0.408399
v 0.000000 125.039268 11.591534
v 7.500000 124.999329 -0.408399
v 0.000000 -124.959343 12.423592
v 7.500000 -124.999283 0.423659
vt 0.375000 0.000000
vt 0.625000 0.000000
vt 0.625000 0.250000
vt 0.375000 0.250000
vt 0.625000 0.500000
vt 0.375000 0.500000
vt 0.625000 0.750000
vt 0.375000 0.750000
vt 0.625000 1.000000
vt 0.375000 1.000000
vt 0.125000 0.500000
vt 0.125000 0.750000
vt 0.875000 0.500000
vt 0.875000 0.750000
vn -0.8480 0.0018 0.5300
vn 0.0000 1.0000 -0.0033
vn 0.8480 0.0018 0.5300
vn 0.0000 -1.0000 0.0033
vn 0.0344 0.6994 -0.7139
vn -0.0202 0.7261 -0.6873
vn 0.0000 -0.0033 -1.0000
vn 0.0000 0.0000 -0.9234
vn 0.1469 0.3546 -0.9234
usemtl None.002
s 1
f 21/33/20 22/34/20 23/35/20 24/36/20
f 24/36/21 23/35/21 25/37/21 26/38/21
f 26/38/22 25/37/22 27/39/22 28/40/22
f 28/40/23 27/39/24 22/41/25 21/42/23
f 24/43/26 26/38/26 28/40/26 21/44/26
f 25/37/27 23/45/28 22/46/25 27/39/24
o Cube.004_Cube.006
v 17.500000 -124.999283 0.423659
v 25.000000 -124.959343 12.423592
v 25.000000 125.039268 11.591534
v 17.500000 124.999329 -0.408399
v 25.000000 125.039268 11.591534
v 32.500000 124.999329 -0.408399
v 25.000000 -124.959343 12.423592
v 32.500000 -124.999283 0.423659
vt 0.375000 0.000000
vt 0.625000 0.000000
vt 0.625000 0.250000
vt 0.375000 0.250000
vt 0.625000 0.500000
vt 0.375000 0.500000
vt 0.625000 0.750000
vt 0.375000 0.750000
vt 0.625000 1.000000
vt 0.375000 1.000000
vt 0.125000 0.500000
vt 0.125000 0.750000
vt 0.875000 0.500000
vt 0.875000 0.750000
vn -0.8480 0.0018 0.5300
vn 0.0000 1.0000 -0.0033
vn 0.8480 0.0018 0.5300
vn 0.0000 -1.0000 0.0033
vn 0.0344 0.6994 -0.7139
vn -0.0202 0.7261 -0.6873
vn 0.0000 -0.0033 -1.0000
vn 0.0000 0.0000 -0.9234
vn 0.1469 0.3546 -0.9234
usemtl None.002
s 1
f 29/47/29 30/48/29 31/49/29 32/50/29
f 32/50/30 31/49/30 33/51/30 34/52/30
f 34/52/31 33/51/31 35/53/31 36/54/31
f 36/54/32 35/53/33 30/55/34 29/56/32
f 32/57/35 34/52/35 36/54/35 29/58/35
f 33/51/36 31/59/37 30/60/34 35/53/33
o Cube.005_Cube.007
v 42.500000 -124.999283 0.423659
v 50.000000 -124.959343 12.423592
v 50.000000 125.039268 11.591534
v 42.500000 124.999329 -0.408399
v 50.000000 125.039268 11.591534
v 57.500000 124.999329 -0.408399
v 50.000000 -124.959343 12.423592
v 57.500000 -124.999283 0.423659
vt 0.375000 0.000000
vt 0.625000 0.000000
vt 0.625000 0.250000
vt 0.375000 0.250000
vt 0.625000 0.500000
vt 0.375000 0.500000
vt 0.625000 0.750000
vt 0.375000 0.750000
vt 0.625000 1.000000
vt 0.375000 1.000000
vt 0.125000 0.500000
vt 0.125000 0.750000
vt 0.875000 0.500000
vt 0.875000 0.750000
vn -0.8480 0.0018 0.5300
vn 0.0000 1.0000 -0.0033
vn 0.8480 0.0018 0.5300
vn 0.0000 -1.0000 0.0033
vn 0.0344 0.6994 -0.7139
vn -0.0202 0.7261 -0.6873
vn 0.0000 -0.0033 -1.0000
vn 0.0000 0.0000 -0.9234
vn 0.1469 0.3546 -0.9234
usemtl None.002
s 1
f 37/61/38 38/62/38 39/63/38 40/64/38
f 40/64/39 39/63/39 41/65/39 42/66/39
f 42/66/40 41/65/40 43/67/40 44/68/40
f 44/68/41 43/67/42 38/69/43 37/70/41
f 40/71/44 42/66/44 44/68/44 37/72/44
f 41/65/45 39/73/46 38/74/43 43/67/42
o Cube.006_Cube.008
v 67.500000 -124.999283 0.423659
v 75.000000 -124.959343 12.423592
v 75.000000 125.039268 11.591534
v 67.500000 124.999329 -0.408399
v 75.000000 125.039268 11.591534
v 82.500000 124.999329 -0.408399
v 75.000000 -124.959343 12.423592
v 82.500000 -124.999283 0.423659
vt 0.375000 0.000000
vt 0.625000 0.000000
vt 0.625000 0.250000
vt 0.375000 0.250000
vt 0.625000 0.500000
vt 0.375000 0.500000
vt 0.625000 0.750000
vt 0.375000 0.750000
vt 0.625000 1.000000
vt 0.375000 1.000000
vt 0.125000 0.500000
vt 0.125000 0.750000
vt 0.875000 0.500000
vt 0.875000 0.750000
vn -0.8480 0.0018 0.5300
vn 0.0000 1.0000 -0.0033
vn 0.8480 0.0018 0.5300
vn 0.0000 -1.0000 0.0033
vn 0.0344 0.6994 -0.7139
vn -0.0202 0.7261 -0.6873
vn 0.0000 -0.0033 -1.0000
vn 0.0000 0.0000 -0.9234
vn 0.1469 0.3546 -0.9234
usemtl None.002
s 1
f 45/75/47 46/76/47 47/77/47 48/78/47
f 48/78/48 47/77/48 49/79/48 50/80/48
f 50/80/49 49/79/49 51/81/49 52/82/49
f 52/82/50 51/81/51 46/83/52 45/84/50
f 48/85/53 50/80/53 52/82/53 45/86/53
f 49/79/54 47/87/55 46/88/52 51/81/51
o Cube.007_Cube.009
v 92.500000 -124.999283 0.423659
v 100.000000 -124.959343 12.423592
v 100.000000 125.039268 11.591534
v 92.500000 124.999329 -0.408399
v 100.000000 125.039268 11.591534
v 107.500000 124.999329 -0.408399
v 100.000000 -124.959343 12.423592
v 107.500000 -124.999283 0.423659
vt 0.375000 0.000000
vt 0.625000 0.000000
vt 0.625000 0.250000
vt 0.375000 0.250000
vt 0.625000 0.500000
vt 0.375000 0.500000
vt 0.625000 0.750000
vt 0.375000 0.750000
vt 0.625000 1.000000
vt 0.375000 1.000000
vt 0.125000 0.500000
vt 0.125000 0.750000
vt 0.875000 0.500000
vt 0.875000 0.750000
vn -0.8480 0.0018 0.5300
vn 0.0000 1.0000 -0.0033
vn 0.8480 0.0018 0.5300
vn 0.0000 -1.0000 0.0033
vn 0.0344 0.6994 -0.7139
vn -0.0202 0.7261 -0.6873
vn 0.0000 -0.0033 -1.0000
vn 0.0000 0.0000 -0.9234
vn 0.1469 0.3546 -0.9234
usemtl None.002
s 1
f 53/89/56 54/90/56 55/91/56 56/92/56
f 56/92/57 55/91/57 57/93/57 58/94/57
f 58/94/58 57/93/58 59/95/58 60/96/58
f 60/96/59 59/95/60 54/97/61 53/98/59
f 56/99/62 58/94/62 60/96/62 53/100/62
f 57/93/63 55/101/64 54/102/61 59/95/60
o Cube.008_Cube.010
v -7.500000 -124.999283 0.423659
v 0.000000 -124.959343 12.423592
v 0.000000 125.039268 11.591534
v -7.500000 124.999329 -0.408399
v 0.000000 125.039268 11.591534
v 7.500000 124.999329 -0.408399
v 0.000000 -124.959343 12.423592
v 7.500000 -124.999283 0.423659
vt 0.375000 0.000000
vt 0.625000 0.000000
vt 0.625000 0.250000
vt 0.375000 0.250000
vt 0.625000 0.500000
vt 0.375000 0.500000
vt 0.625000 0.750000
vt 0.375000 0.750000
vt 0.625000 1.000000
vt 0.375000 1.000000
vt 0.125000 0.500000
vt 0.125000 0.750000
vt 0.875000 0.500000
vt 0.875000 0.750000
vn -0.8480 0.0018 0.5300
vn 0.0000 1.0000 -0.0033
vn 0.8480 0.0018 0.5300
vn 0.0000 -1.0000 0.0033
vn 0.0344 0.6994 -0.7139
vn -0.0202 0.7261 -0.6873
vn 0.0000 -0.0033 -1.0000
vn 0.0000 0.0000 -0.9234
vn 0.1469 0.3546 -0.9234
usemtl None.002
s 1
f 61/103/65 62/104/65 63/105/65 64/106/65
f 64/106/66 63/105/66 65/107/66 66/108/66
f 66/108/67 65/107/67 67/109/67 68/110/67
f 68/110/68 67/109/69 62/111/70 61/112/68
f 64/113/71 66/108/71 68/110/71 61/114/71
f 65/107/72 63/115/73 62/116/70 67/109/69
o Cube.009_Cube.011
v -32.500000 -124.999283 0.423659
v -25.000000 -124.959343 12.423592
v -25.000000 125.039268 11.591534
v -32.500000 124.999329 -0.408399
v -25.000000 125.039268 11.591534
v -17.500000 124.999329 -0.408399
v -25.000000 -124.959343 12.423592
v -17.500000 -124.999283 0.423659
vt 0.375000 0.000000
vt 0.625000 0.000000
vt 0.625000 0.250000
vt 0.375000 0.250000
vt 0.625000 0.500000
vt 0.375000 0.500000
vt 0.625000 0.750000
vt 0.375000 0.750000
vt 0.625000 1.000000
vt 0.375000 1.000000
vt 0.125000 0.500000
vt 0.125000 0.750000
vt 0.875000 0.500000
vt 0.875000 0.750000
vn -0.8480 0.0018 0.5300
vn 0.0000 1.0000 -0.0033
vn 0.8480 0.0018 0.5300
vn 0.0000 -1.0000 0.0033
vn 0.0344 0.6994 -0.7139
vn -0.0202 0.7261 -0.6873
vn 0.0000 -0.0033 -1.0000
vn 0.0000 0.0000 -0.9234
vn 0.1469 0.3546 -0.9234
usemtl None.002
s 1
f 69/117/74 70/118/74 71/119/74 72/120/74
f 72/120/75 71/119/75 73/121/75 74/122/75
f 74/122/76 73/121/76 75/123/76 76/124/76
f 76/124/77 75/123/78 70/125/79 69/126/77
f 72/127/80 74/122/80 76/124/80 69/128/80
f 73/121/81 71/129/82 70/130/79 75/123/78
o Cube.010_Cube.012
v -57.500000 -124.999283 0.423659
v -50.000000 -124.959343 12.423592
v -50.000000 125.039268 11.591534
v -57.500000 124.999329 -0.408399
v -50.000000 125.039268 11.591534
v -42.500000 124.999329 -0.408399
v -50.000000 -124.959343 12.423592
v -42.500000 -124.999283 0.423659
vt 0.375000 0.000000
vt 0.625000 0.000000
vt 0.625000 0.250000
vt 0.375000 0.250000
vt 0.625000 0.500000
vt 0.375000 0.500000
vt 0.625000 0.750000
vt 0.375000 0.750000
vt 0.625000 1.000000
vt 0.375000 1.000000
vt 0.125000 0.500000
vt 0.125000 0.750000
vt 0.875000 0.500000
vt 0.875000 0.750000
vn -0.8480 0.0018 0.5300
vn 0.0000 1.0000 -0.0033
vn 0.8480 0.0018 0.5300
vn 0.0000 -1.0000 0.0033
vn 0.0344 0.6994 -0.7139
vn -0.0202 0.7261 -0.6873
vn 0.0000 -0.0033 -1.0000
vn 0.0000 0.0000 -0.9234
vn 0.1469 0.3546 -0.9234
usemtl None.002
s 1
f 77/131/83 78/132/83 79/133/83 80/134/83
f 80/134/84 79/133/84 81/135/84 82/136/84
f 82/136/85 81/135/85 83/137/85 84/138/85
f 84/138/86 83/137/87 78/139/88 77/140/86
f 80/141/89 82/136/89 84/138/89 77/142/89
f 81/135/90 79/143/91 78/144/88 83/137/87
o Cube.011_Cube.013
v -82.500000 -124.999283 0.423659
v -75.000000 -124.959343 12.423592
v -75.000000 125.039268 11.591534
v -82.500000 124.999329 -0.408399
v -75.000000 125.039268 11.591534
v -67.500000 124.999329 -0.408399
v -75.000000 -124.959343 12.423592
v -67.500000 -124.999283 0.423659
vt 0.375000 0.000000
vt 0.625000 0.000000
vt 0.625000 0.250000
vt 0.375000 0.250000
vt 0.625000 0.500000
vt 0.375000 0.500000
vt 0.625000 0.750000
vt 0.375000 0.750000
vt 0.625000 1.000000
vt 0.375000 1.000000
vt 0.125000 0.500000
vt 0.125000 0.750000
vt 0.875000 0.500000
vt 0.875000 0.750000
vn -0.8480 0.0018 0.5300
vn 0.0000 1.0000 -0.0033
vn 0.8480 0.0018 0.5300
vn 0.0000 -1.0000 0.0033
vn 0.0344 0.6994 -0.7139
vn -0.0202 0.7261 -0.6873
vn 0.0000 -0.0033 -1.0000
vn 0.0000 0.0000 -0.9234
vn 0.1469 0.3546 -0.9234
usemtl None.002
s 1
f 85/145/92 86/146/92 87/147/92 88/148/92
f 88/148/93 87/147/93 89/149/93 90/150/93
f 90/150/94 89/149/94 91/151/94 92/152/94
f 92/152/95 91/151/96 86/153/97 85/154/95
f 88/155/98 90/150/98 92/152/98 85/156/98
f 89/149/99 87/157/100 86/158/97 91/151/96
o Cube.012_Cube.014
v -107.500000 -124.999283 0.423659
v -100.000000 -124.959343 12.423592
v -100.000000 125.039268 11.591534
v -107.500000 124.999329 -0.408399
v -100.000000 125.039268 11.591534
v -92.500000 124.999329 -0.408399
v -100.000000 -124.959343 12.423592
v -92.500000 -124.999283 0.423659
vt 0.375000 0.000000
vt 0.625000 0.000000
vt 0.625000 0.250000
vt 0.375000 0.250000
vt 0.625000 0.500000
vt 0.375000 0.500000
vt 0.625000 0.750000
vt 0.375000 0.750000
vt 0.625000 1.000000
vt 0.375000 1.000000
vt 0.125000 0.500000
vt 0.125000 0.750000
vt 0.875000 0.500000
vt 0.875000 0.750000
vn -0.8480 0.0018 0.5300
vn 0.0000 1.0000 -0.0033
vn 0.8480 0.0018 0.5300
vn 0.0000 -1.0000 0.0033
vn 0.0344 0.6994 -0.7139
vn -0.0202 0.7261 -0.6873
vn 0.0000 -0.0033 -1.0000
vn 0.0000 0.0000 -0.9234
vn 0.1469 0.3546 -0.9234
usemtl None.002
s 1
f 93/159/101 94/160/101 95/161/101 96/162/101
f 96/162/102 95/161/102 97/163/102 98/164/102
f 98/164/103 97/163/103 99/165/103 100/166/103
f 100/166/104 99/165/105 94/167/106 93/168/104
f 96/169/107 98/164/107 100/166/107 93/170/107
f 97/163/108 95/171/109 94/172/106 99/165/105
